Coordinates
version=1
nRows=17
nColumns=36
inDegrees=yes

Units are S.I. units (second, meters, Newtons, ...)
If the header above contains a line with 'inDegrees', this indicates whether rotational values are in degrees (yes) or radians (no).

endheader
time	pelvis_tilt	pelvis_list	pelvis_rotation	pelvis_tx	pelvis_ty	pelvis_tz	hip_flexion_r	hip_adduction_r	hip_rotation_r	knee_angle_r	knee_angle_r_beta	ankle_angle_r	subtalar_angle_r	mtp_angle_r	hip_flexion_l	hip_adduction_l	hip_rotation_l	knee_angle_l	knee_angle_l_beta	ankle_angle_l	subtalar_angle_l	mtp_angle_l	lumbar_extension	lumbar_bending	lumbar_rotation	arm_flex_r	arm_add_r	arm_rot_r	elbow_flex_r	pro_sup_r	arm_flex_l	arm_add_l	arm_rot_l	elbow_flex_l	pro_sup_l
      2.96666670	    -17.11956911	      5.87894713	     -5.64186015	      0.12648334	      1.22127599	     -0.01956877	     16.50868806	     -3.75162520	      6.53628841	     39.62556826	      0.69159663	     25.68546128	    -15.40237219	     -7.49999987	     21.07817014	      5.16256437	      8.12346107	     45.57115242	      0.79536665	     27.22618822	     -0.24271664	     -7.49999987	      2.06611727	     -4.03411948	    -10.46623152	    -11.17060662	    -23.73028996	     -2.07296519	     95.97925960	     96.16883708	    -44.45771861	    -22.31491308	      1.68483923	     73.18068429	     73.13314984
      2.98333330	    -16.83214697	      6.17866038	     -5.65403984	      0.15695797	      1.24719704	     -0.01235120	     12.66190901	     -4.56650994	      5.26289577	     33.40402181	      0.58301016	     20.58564150	    -15.37897681	     -7.49999987	     17.41688264	      5.29034705	      9.12206721	     40.61218511	      0.70881635	     21.51080483	     -1.48425397	     -7.49999987	      3.54954713	     -4.49109077	    -10.39752687	    -10.89361985	    -24.25844303	     -1.86479983	     99.60694408	     96.78025628	    -47.18936683	    -23.76669828	     -0.30032919	     77.65293501	     73.82675957
      3.00000000	    -16.99453335	      6.24513420	     -5.52138578	      0.16965794	      1.27844103	     -0.00818756	     10.86666611	     -4.69591269	      3.94002246	     29.34254258	      0.51212398	     16.46014276	    -14.61017790	     -7.49999987	     14.97850996	      4.85370574	      9.66776906	     35.60699077	      0.62145923	     16.55284314	     -1.88957256	     -7.49999987	      5.00369563	     -4.76766428	    -10.46150867	    -11.23372563	    -23.32578509	     -2.11319197	    101.87476473	     97.27980504	    -49.12028198	    -24.40430570	     -3.80242131	     82.77609584	     75.14026188
      3.01666670	    -16.99183807	      6.60743263	     -5.47237674	      0.18927110	      1.30159942	      0.00095743	      8.51751932	     -5.24680201	      2.61728881	     25.41956384	      0.44365508	     11.44891220	    -12.77616976	     -7.49999987	     12.55789555	      4.67648322	     10.21498396	     29.76894247	      0.51956606	     11.67366093	     -2.46122609	     -7.49999987	      6.13378537	     -5.51732554	    -10.34678468	    -11.94954018	    -22.23208804	     -1.74167166	    100.40343027	     96.50060860	    -50.19184126	    -24.30600308	     -7.05138486	     85.09880906	     79.60803677
      3.03333330	    -17.41813220	      6.64605154	     -5.75542079	      0.20092980	      1.31691857	      0.00563023	      8.83682673	     -5.04610095	      1.87386983	     25.03650796	      0.43696950	      6.98492912	    -12.28172743	     -7.49999987	     11.81079005	      3.98350938	     10.06737964	     26.71549562	      0.46627336	      7.25538540	     -2.66586987	     -7.49999987	      7.02729656	     -5.66587414	     -8.39643859	    -16.23012837	    -20.37908941	     -4.16963960	    100.71571358	     96.14080687	    -49.96086918	    -25.59998095	     -7.77182153	     87.20883528	     80.60605471
      3.05000000	    -17.40289421	      6.00698613	     -5.72270770	      0.22020748	      1.34878652	      0.00718193	      9.45949709	     -4.29910758	      1.02291589	     25.74037201	      0.44925424	      3.22732067	    -12.59314490	     -7.49999987	     10.81087024	      2.63860321	      9.43411261	     24.21996151	      0.42271807	      2.86280418	     -2.51112438	     -7.49999987	      7.09330427	     -5.31637159	     -7.90932781	    -16.78517461	    -19.21282572	     -4.16805265	     98.48013480	     95.79982031	    -49.11072670	    -25.19200653	     -8.31460269	     86.34896918	     80.45701830
      3.06666670	    -16.81424408	      5.34767009	     -6.01293276	      0.23020133	      1.37624817	      0.01101332	      9.64542917	     -3.44130727	     -0.05181581	     26.07996330	      0.45518123	      0.21174156	    -12.67793484	     -7.49999987	     10.36638281	      1.41820992	      8.74206253	     23.18449394	      0.40464575	     -1.00902721	     -2.59925909	     -7.49999987	      6.66398555	     -4.75275495	     -7.79220947	    -16.92378605	    -17.46151287	     -4.09108177	     94.52712496	     96.10377902	    -47.70690243	    -24.15544126	     -8.52448945	     84.09149490	     81.66485232
      3.08333330	    -15.76951710	      4.90084350	     -6.31174192	      0.27682846	      1.39309617	     -0.00176896	      9.33357903	     -3.54957821	     -1.44301553	     27.30203827	      0.47651046	     -3.54504014	    -12.53790599	     -7.49999987	      8.41908955	      0.90086589	      7.62114736	     21.21277539	      0.37023277	     -3.21778684	     -2.78309573	     -7.49999987	      6.08910241	     -4.28865715	     -7.73957205	    -21.55005695	    -17.59042409	     -5.11592022	     92.14040423	     95.27349357	    -47.69797479	    -21.77749698	     -8.20669628	     82.39356133	     81.37458686
      3.10000000	    -15.13356127	      4.33379926	     -6.76768311	      0.30261201	      1.41217031	      0.00376761	      9.97049214	     -3.19839958	     -1.77747118	     30.01204827	      0.52380906	     -6.75745894	    -12.86571235	     -7.49999987	      6.89990484	      0.20691134	      6.46269525	     19.63973828	      0.34277810	     -4.41643728	     -2.44918806	     -7.49999987	      6.36486123	     -3.23545872	     -7.30093516	    -24.77896424	    -16.78241897	     -7.41713859	     87.67684935	     93.94347193	    -46.34307895	    -20.10333072	     -7.15844281	     78.49931302	     81.38520168
      3.11666670	    -14.49776310	      3.27596549	     -7.08089053	      0.32010982	      1.42714098	      0.01151035	     10.17785680	     -2.09596164	     -1.88883901	     31.48422425	      0.54950338	     -7.78172295	    -12.91788531	     -7.49999987	      4.99815597	     -1.12383183	      5.22266978	     17.79499643	      0.31058128	     -5.63917573	     -2.09387819	     -7.49999987	      6.64074389	     -1.94329899	     -8.06861608	    -24.58622353	    -16.67407016	     -6.15635875	     82.69515298	     90.18028992	    -44.33167585	    -19.32107545	     -5.82657007	     74.34896029	     78.99333901
      3.13333330	    -13.71503166	      1.87362549	     -7.46524578	      0.33671642	      1.44666529	      0.01224343	     11.07641773	     -0.41072909	     -1.98792545	     33.90817636	      0.59180932	     -8.47296872	    -14.21941184	     -7.49999987	      4.34086317	     -2.65912274	      4.06926439	     17.52615487	      0.30588911	     -7.59171800	     -2.19678156	     -7.49999987	      6.55546938	     -0.35577903	     -8.15922297	    -24.89888743	    -16.67311840	     -5.73687487	     77.37916513	     86.68797281	    -42.05156218	    -17.88847391	     -4.87415602	     69.81288905	     76.74577881
      3.15000000	    -12.72051093	      1.42561776	     -7.46476925	      0.34439608	      1.45154909	      0.01590902	     11.42643983	      0.04023844	     -1.61970883	     36.23414296	      0.63240510	     -6.94477654	    -14.62407164	     -7.49999987	      5.18512277	     -2.95755904	      3.73659811	     19.86739157	      0.34675140	     -8.06063717	     -2.84586057	     -7.49999987	      5.51190625	      0.16446937	     -8.40503477	    -24.71979915	    -17.37976255	     -4.26778133	     72.67899197	     84.30355032	    -39.39597380	    -18.10434010	     -2.66870444	     65.89769064	     75.33491901
      3.16666670	    -11.87174725	      1.14745535	     -7.10311732	      0.36180088	      1.45292059	      0.01646866	     11.51842322	      0.35120137	     -1.66600001	     37.45233176	      0.65366650	     -5.09676953	    -14.77915681	     -7.49999987	      6.20323564	     -2.98199809	      3.78241641	     22.62587006	      0.39489593	     -8.09057315	     -3.69565935	     -7.49999987	      4.53296884	      0.26784859	     -8.05238506	    -26.92528206	    -17.74090443	     -4.56336872	     70.02964445	     83.66062950	    -38.30786906	    -18.18142366	     -1.84882656	     63.90502610	     75.15810550
      3.18333330	    -11.31829552	      0.70632071	     -6.90062593	      0.36157179	      1.45655386	      0.01611399	     12.98322214	      0.65157128	     -2.34980687	     39.00177301	      0.68070935	     -4.71412645	    -15.49413425	     -7.49999987	      6.92279825	     -3.33565674	      3.47762976	     24.22526559	      0.42281065	     -8.36441773	     -3.92030852	     -7.49999987	      3.34581387	      0.82500084	     -7.75184766	    -27.65603459	    -18.31520007	     -4.39338083	     67.37842621	     81.37512132	    -36.88318720	    -18.29148644	     -1.10509943	     62.46185877	     73.81574118
      3.20000000	    -10.76372379	      0.51995347	     -6.96788413	      0.37806845	      1.45296232	      0.01719955	     13.31155329	      0.53720135	     -3.12079223	     38.25735670	      0.66771684	     -5.60466799	    -14.44146547	     -7.49999987	      7.22868868	     -3.31088511	      3.24396123	     24.98030171	      0.43598851	     -8.46638610	     -3.69083822	     -7.49999987	      2.66482241	      1.22655595	     -7.51641552	    -28.49438043	    -18.90010988	     -4.15160789	     64.94200749	     81.08807329	    -36.76755374	    -18.10001816	     -0.35110256	     61.33956298	     73.86013460
      3.21666670	    -10.39833021	      0.48200224	     -6.82748157	      0.39618791	      1.44898713	      0.01237932	     13.90289747	      0.07293811	     -4.26847017	     36.32494697	      0.63398993	     -7.01739876	    -13.23861722	     -7.49999987	      7.82238699	     -3.14213861	      2.80656665	     26.17018048	      0.45675582	    -10.66481202	     -3.53993510	     -7.49999987	      2.09141506	      1.38249129	     -7.09837012	    -30.42986299	    -20.27786878	     -4.06655862	     63.92220123	     80.72347332	    -37.34890493	    -17.91096196	     -0.22795166	     61.87122329	     73.74768320
      3.23333330	     -9.80342534	      0.58194633	     -7.14198034	      0.42800687	      1.44382102	      0.02164315	     12.80259771	     -0.31406976	     -5.75280579	     32.42405662	      0.56590654	    -10.12583172	    -11.47271710	     -7.49999987	      7.33119199	     -2.71087576	      2.65721489	     24.25212527	      0.42327944	    -10.75633067	     -3.61125847	     -7.49999987	      1.85072931	      1.12036310	     -6.01949200	    -33.60534171	    -21.29544148	     -3.67431139	     63.47476247	     80.35943550	    -40.22880170	    -17.96307206	     -0.33943306	     63.23864147	     73.83825761
